<svg width="32" height="32" viewBox="0 0 32 32" fill="none" xmlns="http://www.w3.org/2000/svg">
  <rect width="32" height="32" rx="8" fill="#E6EBF7"/>
  <circle cx="10" cy="22" r="3" fill="#2142AB"/>
  <circle cx="22" cy="22" r="3" fill="#2142AB"/>
  <path d="M10 19C10 17.8954 10.8954 17 12 17H20C21.1046 17 22 17.8954 22 19V22" stroke="#2142AB" stroke-width="2"/>
  <path d="M12 17V14C12 12.8954 12.8954 12 14 12H18C19.1046 12 20 12.8954 20 14V17" stroke="#2142AB" stroke-width="2"/>
  <path d="M14 12V10C14 8.89543 14.8954 8 16 8H16.5C17.1046 8 17.5 8.44772 17.5 9V12" stroke="#2142AB" stroke-width="2"/>
</svg>
